<svg xmlns='http://www.w3.org/2000/svg' version='1.1' width='8300px' height='1152px'><svg xmlns="http://www.w3.org/2000/svg" style="position: fixed; left: 1000vw;" x="8000" y="0"><text/></svg><svg xmlns="http://www.w3.org/2000/svg" width="779" height="790.40625" x="10.5" y="151.09375"><g class="fl-chart"><rect class="fl-chart-debug-rectangle" x="0" y="0" style="stroke-width: 1px; fill: none; display: none; stroke: red;" width="779" height="790.40625"/><clipPath class="fl-data-clip-path" id="fl-chart-layout-0-clip-path"><rect x="0" y="0" width="779" height="790.40625"/></clipPath><clipPath class="fl-grid-clip-path" id="fl-chart-layout-0-grid-clip-path"><rect x="2.5" y="2.5" width="774" height="760.40625"/></clipPath><g class="fl-chart-background"><rect class="fl-chart-fill" x="3.5" y="3.5" width="772" height="758.40625" fill="none"/><image class="fl-chart-image" x="3.5" y="3.5" width="772" height="758.40625" preserveAspectRatio="none"/><rect class="fl-chart-interaction" style="opacity: 0;" x="3.5" y="3.5" width="772" height="758.40625"/></g><g class="fl-data-background" clip-path="url(#fl-chart-layout-0-clip-path)"/><g class="fl-gridlines" style="pointer-events: none;" clip-path="url(#fl-chart-layout-0-grid-clip-path)"><g class="fl-gridlines-vertical"/><g class="fl-gridlines-horizontal"/></g><g class="fl-axes" aria-hidden="true"><g class="fl-x-axes"><g class="fl-axis fl-x-axis fl-bottom-axis"><g class="fl-axis-line"/><g class="fl-axis-ticks"><g transform="translate(389.5, 761.90625)" style="opacity: 1;"><line y2="0" style="stroke: rgb(238, 238, 238); stroke-width: 1;"/><text text-anchor="end" transform="translate(0,19.740000000000002)" style="user-select: none; cursor: default; font-size: 14px; font-weight: normal;"><tspan x="0" dy="0"/></text></g></g><g class="fl-axis-title"/></g><g class="fl-axis fl-x-axis fl-top-axis"><g class="fl-axis-line"/><g class="fl-axis-ticks"/><g class="fl-axis-title"/></g></g><g class="fl-y-axes"><g class="fl-axis fl-y-axis fl-left-axis"><g class="fl-axis-line"/><g class="fl-axis-ticks"/><g class="fl-axis-title"/></g><g class="fl-axis fl-y-axis fl-right-axis"><g class="fl-axis-line"/><g class="fl-axis-ticks"/><g class="fl-axis-title"/></g></g></g><g class="fl-data-foreground" clip-path="url(#fl-chart-layout-0-clip-path)"><g class="bar-groups"><g class="bar-group"><g class="icons"><g class="icon-layer" style="opacity: 1;"><defs><path id="fl-icon--844849807" d="M400 32H48C21.5 32 0 53.5 0 80v352c0 26.5 21.5 48 48 48h352c26.5 0 48-21.5 48-48V80c0-26.5-21.5-48-48-48z" transform="translate(0,0)scale(0.13298906249999998)" style="fill: rgb(0, 0, 0); stroke: none; stroke-width: 0;"/></defs><g class="icons" clip-path="url(#fl-clip-path--844849807)"><use transform="translate(19.220000000000027,690.5)" xmlns:ns1="http://www.w3.org/1999/xlink" ns1:href="#fl-icon--844849807"/><use transform="translate(95.22000000000003,690.5)" xmlns:ns2="http://www.w3.org/1999/xlink" ns2:href="#fl-icon--844849807"/><use transform="translate(170.22000000000003,690.5)" xmlns:ns3="http://www.w3.org/1999/xlink" ns3:href="#fl-icon--844849807"/><use transform="translate(246.22000000000003,690.5)" xmlns:ns4="http://www.w3.org/1999/xlink" ns4:href="#fl-icon--844849807"/><use transform="translate(322.22,690.5)" xmlns:ns5="http://www.w3.org/1999/xlink" ns5:href="#fl-icon--844849807"/><use transform="translate(397.22,690.5)" xmlns:ns6="http://www.w3.org/1999/xlink" ns6:href="#fl-icon--844849807"/><use transform="translate(473.22,690.5)" xmlns:ns7="http://www.w3.org/1999/xlink" ns7:href="#fl-icon--844849807"/><use transform="translate(549.22,690.5)" xmlns:ns8="http://www.w3.org/1999/xlink" ns8:href="#fl-icon--844849807"/><use transform="translate(624.22,690.5)" xmlns:ns9="http://www.w3.org/1999/xlink" ns9:href="#fl-icon--844849807"/><use transform="translate(700.22,690.5)" xmlns:ns10="http://www.w3.org/1999/xlink" ns10:href="#fl-icon--844849807"/><use transform="translate(19.220000000000027,614.5)" xmlns:ns11="http://www.w3.org/1999/xlink" ns11:href="#fl-icon--844849807"/><use transform="translate(95.22000000000003,614.5)" xmlns:ns12="http://www.w3.org/1999/xlink" ns12:href="#fl-icon--844849807"/><use transform="translate(170.22000000000003,614.5)" xmlns:ns13="http://www.w3.org/1999/xlink" ns13:href="#fl-icon--844849807"/><use transform="translate(246.22000000000003,614.5)" xmlns:ns14="http://www.w3.org/1999/xlink" ns14:href="#fl-icon--844849807"/><use transform="translate(322.22,614.5)" xmlns:ns15="http://www.w3.org/1999/xlink" ns15:href="#fl-icon--844849807"/><use transform="translate(397.22,614.5)" xmlns:ns16="http://www.w3.org/1999/xlink" ns16:href="#fl-icon--844849807"/><use transform="translate(473.22,614.5)" xmlns:ns17="http://www.w3.org/1999/xlink" ns17:href="#fl-icon--844849807"/><use transform="translate(549.22,614.5)" xmlns:ns18="http://www.w3.org/1999/xlink" ns18:href="#fl-icon--844849807"/><use transform="translate(624.22,614.5)" xmlns:ns19="http://www.w3.org/1999/xlink" ns19:href="#fl-icon--844849807"/><use transform="translate(700.22,614.5)" xmlns:ns20="http://www.w3.org/1999/xlink" ns20:href="#fl-icon--844849807"/><use transform="translate(19.220000000000027,538.5)" xmlns:ns21="http://www.w3.org/1999/xlink" ns21:href="#fl-icon--844849807"/><use transform="translate(95.22000000000003,538.5)" xmlns:ns22="http://www.w3.org/1999/xlink" ns22:href="#fl-icon--844849807"/><use transform="translate(170.22000000000003,538.5)" xmlns:ns23="http://www.w3.org/1999/xlink" ns23:href="#fl-icon--844849807"/><use transform="translate(246.22000000000003,538.5)" xmlns:ns24="http://www.w3.org/1999/xlink" ns24:href="#fl-icon--844849807"/><use transform="translate(322.22,538.5)" xmlns:ns25="http://www.w3.org/1999/xlink" ns25:href="#fl-icon--844849807"/><use transform="translate(397.22,538.5)" xmlns:ns26="http://www.w3.org/1999/xlink" ns26:href="#fl-icon--844849807"/><use transform="translate(473.22,538.5)" xmlns:ns27="http://www.w3.org/1999/xlink" ns27:href="#fl-icon--844849807"/><use transform="translate(549.22,538.5)" xmlns:ns28="http://www.w3.org/1999/xlink" ns28:href="#fl-icon--844849807"/><use transform="translate(624.22,538.5)" xmlns:ns29="http://www.w3.org/1999/xlink" ns29:href="#fl-icon--844849807"/><use transform="translate(700.22,538.5)" xmlns:ns30="http://www.w3.org/1999/xlink" ns30:href="#fl-icon--844849807"/><use transform="translate(19.220000000000027,463.5)" xmlns:ns31="http://www.w3.org/1999/xlink" ns31:href="#fl-icon--844849807"/><use transform="translate(95.22000000000003,463.5)" xmlns:ns32="http://www.w3.org/1999/xlink" ns32:href="#fl-icon--844849807"/><use transform="translate(170.22000000000003,463.5)" xmlns:ns33="http://www.w3.org/1999/xlink" ns33:href="#fl-icon--844849807"/><use transform="translate(246.22000000000003,463.5)" xmlns:ns34="http://www.w3.org/1999/xlink" ns34:href="#fl-icon--844849807"/><use transform="translate(322.22,463.5)" xmlns:ns35="http://www.w3.org/1999/xlink" ns35:href="#fl-icon--844849807"/><use transform="translate(397.22,463.5)" xmlns:ns36="http://www.w3.org/1999/xlink" ns36:href="#fl-icon--844849807"/><use transform="translate(473.22,463.5)" xmlns:ns37="http://www.w3.org/1999/xlink" ns37:href="#fl-icon--844849807"/><use transform="translate(549.22,463.5)" xmlns:ns38="http://www.w3.org/1999/xlink" ns38:href="#fl-icon--844849807"/><use transform="translate(624.22,463.5)" xmlns:ns39="http://www.w3.org/1999/xlink" ns39:href="#fl-icon--844849807"/><use transform="translate(700.22,463.5)" xmlns:ns40="http://www.w3.org/1999/xlink" ns40:href="#fl-icon--844849807"/><use transform="translate(19.220000000000027,387.5)" xmlns:ns41="http://www.w3.org/1999/xlink" ns41:href="#fl-icon--844849807"/><use transform="translate(95.22000000000003,387.5)" xmlns:ns42="http://www.w3.org/1999/xlink" ns42:href="#fl-icon--844849807"/><use transform="translate(170.22000000000003,387.5)" xmlns:ns43="http://www.w3.org/1999/xlink" ns43:href="#fl-icon--844849807"/><use transform="translate(246.22000000000003,387.5)" xmlns:ns44="http://www.w3.org/1999/xlink" ns44:href="#fl-icon--844849807"/><use transform="translate(322.22,387.5)" xmlns:ns45="http://www.w3.org/1999/xlink" ns45:href="#fl-icon--844849807"/><use transform="translate(397.22,387.5)" xmlns:ns46="http://www.w3.org/1999/xlink" ns46:href="#fl-icon--844849807"/><use transform="translate(473.22,387.5)" xmlns:ns47="http://www.w3.org/1999/xlink" ns47:href="#fl-icon--844849807"/><use transform="translate(549.22,387.5)" xmlns:ns48="http://www.w3.org/1999/xlink" ns48:href="#fl-icon--844849807"/><use transform="translate(624.22,387.5)" xmlns:ns49="http://www.w3.org/1999/xlink" ns49:href="#fl-icon--844849807"/></g></g><g class="icon-layer" style="opacity: 1;"><defs><path id="fl-icon-976201868" d="M400 32H48C21.5 32 0 53.5 0 80v352c0 26.5 21.5 48 48 48h352c26.5 0 48-21.5 48-48V80c0-26.5-21.5-48-48-48z" transform="translate(0,0)scale(0.13298906249999998)" style="fill: rgb(196, 196, 196); stroke: none; stroke-width: 0;"/></defs><g class="icons" clip-path="url(#fl-clip-path-976201868)"><use transform="translate(624.22,387.5)" xmlns:ns50="http://www.w3.org/1999/xlink" ns50:href="#fl-icon-976201868"/><use transform="translate(700.22,387.5)" xmlns:ns51="http://www.w3.org/1999/xlink" ns51:href="#fl-icon-976201868"/><use transform="translate(19.220000000000027,311.5)" xmlns:ns52="http://www.w3.org/1999/xlink" ns52:href="#fl-icon-976201868"/><use transform="translate(95.22000000000003,311.5)" xmlns:ns53="http://www.w3.org/1999/xlink" ns53:href="#fl-icon-976201868"/><use transform="translate(170.22000000000003,311.5)" xmlns:ns54="http://www.w3.org/1999/xlink" ns54:href="#fl-icon-976201868"/><use transform="translate(246.22000000000003,311.5)" xmlns:ns55="http://www.w3.org/1999/xlink" ns55:href="#fl-icon-976201868"/><use transform="translate(322.22,311.5)" xmlns:ns56="http://www.w3.org/1999/xlink" ns56:href="#fl-icon-976201868"/><use transform="translate(397.22,311.5)" xmlns:ns57="http://www.w3.org/1999/xlink" ns57:href="#fl-icon-976201868"/><use transform="translate(473.22,311.5)" xmlns:ns58="http://www.w3.org/1999/xlink" ns58:href="#fl-icon-976201868"/><use transform="translate(549.22,311.5)" xmlns:ns59="http://www.w3.org/1999/xlink" ns59:href="#fl-icon-976201868"/><use transform="translate(624.22,311.5)" xmlns:ns60="http://www.w3.org/1999/xlink" ns60:href="#fl-icon-976201868"/><use transform="translate(700.22,311.5)" xmlns:ns61="http://www.w3.org/1999/xlink" ns61:href="#fl-icon-976201868"/><use transform="translate(19.220000000000027,236.5)" xmlns:ns62="http://www.w3.org/1999/xlink" ns62:href="#fl-icon-976201868"/><use transform="translate(95.22000000000003,236.5)" xmlns:ns63="http://www.w3.org/1999/xlink" ns63:href="#fl-icon-976201868"/><use transform="translate(170.22000000000003,236.5)" xmlns:ns64="http://www.w3.org/1999/xlink" ns64:href="#fl-icon-976201868"/><use transform="translate(246.22000000000003,236.5)" xmlns:ns65="http://www.w3.org/1999/xlink" ns65:href="#fl-icon-976201868"/><use transform="translate(322.22,236.5)" xmlns:ns66="http://www.w3.org/1999/xlink" ns66:href="#fl-icon-976201868"/><use transform="translate(397.22,236.5)" xmlns:ns67="http://www.w3.org/1999/xlink" ns67:href="#fl-icon-976201868"/><use transform="translate(473.22,236.5)" xmlns:ns68="http://www.w3.org/1999/xlink" ns68:href="#fl-icon-976201868"/><use transform="translate(549.22,236.5)" xmlns:ns69="http://www.w3.org/1999/xlink" ns69:href="#fl-icon-976201868"/><use transform="translate(624.22,236.5)" xmlns:ns70="http://www.w3.org/1999/xlink" ns70:href="#fl-icon-976201868"/><use transform="translate(700.22,236.5)" xmlns:ns71="http://www.w3.org/1999/xlink" ns71:href="#fl-icon-976201868"/><use transform="translate(19.220000000000027,160.5)" xmlns:ns72="http://www.w3.org/1999/xlink" ns72:href="#fl-icon-976201868"/><use transform="translate(95.22000000000003,160.5)" xmlns:ns73="http://www.w3.org/1999/xlink" ns73:href="#fl-icon-976201868"/><use transform="translate(170.22000000000003,160.5)" xmlns:ns74="http://www.w3.org/1999/xlink" ns74:href="#fl-icon-976201868"/><use transform="translate(246.22000000000003,160.5)" xmlns:ns75="http://www.w3.org/1999/xlink" ns75:href="#fl-icon-976201868"/><use transform="translate(322.22,160.5)" xmlns:ns76="http://www.w3.org/1999/xlink" ns76:href="#fl-icon-976201868"/><use transform="translate(397.22,160.5)" xmlns:ns77="http://www.w3.org/1999/xlink" ns77:href="#fl-icon-976201868"/><use transform="translate(473.22,160.5)" xmlns:ns78="http://www.w3.org/1999/xlink" ns78:href="#fl-icon-976201868"/><use transform="translate(549.22,160.5)" xmlns:ns79="http://www.w3.org/1999/xlink" ns79:href="#fl-icon-976201868"/><use transform="translate(624.22,160.5)" xmlns:ns80="http://www.w3.org/1999/xlink" ns80:href="#fl-icon-976201868"/><use transform="translate(700.22,160.5)" xmlns:ns81="http://www.w3.org/1999/xlink" ns81:href="#fl-icon-976201868"/><use transform="translate(19.220000000000027,84.5)" xmlns:ns82="http://www.w3.org/1999/xlink" ns82:href="#fl-icon-976201868"/><use transform="translate(95.22000000000003,84.5)" xmlns:ns83="http://www.w3.org/1999/xlink" ns83:href="#fl-icon-976201868"/><use transform="translate(170.22000000000003,84.5)" xmlns:ns84="http://www.w3.org/1999/xlink" ns84:href="#fl-icon-976201868"/><use transform="translate(246.22000000000003,84.5)" xmlns:ns85="http://www.w3.org/1999/xlink" ns85:href="#fl-icon-976201868"/><use transform="translate(322.22,84.5)" xmlns:ns86="http://www.w3.org/1999/xlink" ns86:href="#fl-icon-976201868"/><use transform="translate(397.22,84.5)" xmlns:ns87="http://www.w3.org/1999/xlink" ns87:href="#fl-icon-976201868"/><use transform="translate(473.22,84.5)" xmlns:ns88="http://www.w3.org/1999/xlink" ns88:href="#fl-icon-976201868"/><use transform="translate(549.22,84.5)" xmlns:ns89="http://www.w3.org/1999/xlink" ns89:href="#fl-icon-976201868"/><use transform="translate(624.22,84.5)" xmlns:ns90="http://www.w3.org/1999/xlink" ns90:href="#fl-icon-976201868"/><use transform="translate(700.22,84.5)" xmlns:ns91="http://www.w3.org/1999/xlink" ns91:href="#fl-icon-976201868"/><use transform="translate(19.220000000000027,9.5)" xmlns:ns92="http://www.w3.org/1999/xlink" ns92:href="#fl-icon-976201868"/><use transform="translate(95.22000000000003,9.5)" xmlns:ns93="http://www.w3.org/1999/xlink" ns93:href="#fl-icon-976201868"/><use transform="translate(170.22000000000003,9.5)" xmlns:ns94="http://www.w3.org/1999/xlink" ns94:href="#fl-icon-976201868"/><use transform="translate(246.22000000000003,9.5)" xmlns:ns95="http://www.w3.org/1999/xlink" ns95:href="#fl-icon-976201868"/><use transform="translate(322.22,9.5)" xmlns:ns96="http://www.w3.org/1999/xlink" ns96:href="#fl-icon-976201868"/><use transform="translate(397.22,9.5)" xmlns:ns97="http://www.w3.org/1999/xlink" ns97:href="#fl-icon-976201868"/><use transform="translate(473.22,9.5)" xmlns:ns98="http://www.w3.org/1999/xlink" ns98:href="#fl-icon-976201868"/><use transform="translate(549.22,9.5)" xmlns:ns99="http://www.w3.org/1999/xlink" ns99:href="#fl-icon-976201868"/><use transform="translate(624.22,9.5)" xmlns:ns100="http://www.w3.org/1999/xlink" ns100:href="#fl-icon-976201868"/><use transform="translate(700.22,9.5)" xmlns:ns101="http://www.w3.org/1999/xlink" ns101:href="#fl-icon-976201868"/></g></g></g><g class="clip-paths"><clipPath id="fl-clip-path--844849807"><path d="M11.220000000000027,761.90625 L86.87600000000002,761.90625 L86.87600000000002,686.25025 L11.220000000000027,686.25025 z M86.87600000000002,761.90625 L767.78,761.90625 L767.78,686.25025 L86.87600000000002,686.25025 z M11.220000000000027,686.25025 L767.78,686.25025 L767.78,459.28225000000003 L11.220000000000027,459.28225000000003 z M11.220000000000027,459.28225000000003 L616.468,459.28225000000003 L616.468,383.62625 L11.220000000000027,383.62625 z M616.468,459.28225000000003 L692.1239999999999,459.28225000000003 L692.1239999999999,419.9411299999998 L616.468,419.9411299999998 z " style="fill: rgb(255, 255, 255);"/></clipPath><clipPath id="fl-clip-path-976201868"><path d="M616.468,419.9411299999998 L692.1239999999999,419.9411299999998 L692.1239999999999,383.62625 L616.468,383.62625 z M692.1239999999999,459.28225000000003 L767.78,459.28225000000003 L767.78,383.62625 L692.1239999999999,383.62625 z M11.220000000000027,383.62625 L767.78,383.62625 L767.78,5.346250000000055 L11.220000000000027,5.346250000000055 z M11.220000000000027,5.346250000000055 L86.87600000000002,5.346250000000055 L86.87600000000002,5.346250000000055 L11.220000000000027,5.346250000000055 z " style="fill: rgb(255, 255, 255);"/></clipPath></g><g class="popup-positions"><path d="M11.220000000000027,761.90625 L86.87600000000002,761.90625 L86.87600000000002,686.25025 L11.220000000000027,686.25025 z M86.87600000000002,761.90625 L767.78,761.90625 L767.78,686.25025 L86.87600000000002,686.25025 z M11.220000000000027,686.25025 L767.78,686.25025 L767.78,459.28225000000003 L11.220000000000027,459.28225000000003 z M11.220000000000027,459.28225000000003 L616.468,459.28225000000003 L616.468,383.62625 L11.220000000000027,383.62625 z M616.468,459.28225000000003 L692.1239999999999,459.28225000000003 L692.1239999999999,419.9411299999998 L616.468,419.9411299999998 z " style="fill: transparent;"/><path d="M616.468,419.9411299999998 L692.1239999999999,419.9411299999998 L692.1239999999999,383.62625 L616.468,383.62625 z M692.1239999999999,459.28225000000003 L767.78,459.28225000000003 L767.78,383.62625 L692.1239999999999,383.62625 z M11.220000000000027,383.62625 L767.78,383.62625 L767.78,5.346250000000055 L11.220000000000027,5.346250000000055 z M11.220000000000027,5.346250000000055 L86.87600000000002,5.346250000000055 L86.87600000000002,5.346250000000055 L11.220000000000027,5.346250000000055 z " style="fill: transparent;"/></g><g class="events"><path d="M11.220000000000027,761.90625 L86.87600000000002,761.90625 L86.87600000000002,686.25025 L11.220000000000027,686.25025 z M86.87600000000002,761.90625 L767.78,761.90625 L767.78,686.25025 L86.87600000000002,686.25025 z M11.220000000000027,686.25025 L767.78,686.25025 L767.78,459.28225000000003 L11.220000000000027,459.28225000000003 z M11.220000000000027,459.28225000000003 L616.468,459.28225000000003 L616.468,383.62625 L11.220000000000027,383.62625 z M616.468,459.28225000000003 L692.1239999999999,459.28225000000003 L692.1239999999999,419.9411299999998 L616.468,419.9411299999998 z " role="img" aria-roledescription="data point" aria-label="Homens, Proporção: 48.52" tabindex="0" style="fill: transparent;"/><path d="M616.468,419.9411299999998 L692.1239999999999,419.9411299999998 L692.1239999999999,383.62625 L616.468,383.62625 z M692.1239999999999,459.28225000000003 L767.78,459.28225000000003 L767.78,383.62625 L692.1239999999999,383.62625 z M11.220000000000027,383.62625 L767.78,383.62625 L767.78,5.346250000000055 L11.220000000000027,5.346250000000055 z M11.220000000000027,5.346250000000055 L86.87600000000002,5.346250000000055 L86.87600000000002,5.346250000000055 L11.220000000000027,5.346250000000055 z " role="img" aria-roledescription="data point" aria-label="Mulheres, Proporção: 51.48" tabindex="0" style="fill: transparent;"/></g><text class="bar-label" x="389.5" y="5.346250000000055" style="display: none; font-size: 11.2px; fill: rgb(74, 74, 74); font-weight: bold; text-anchor: middle; dominant-baseline: text-after-edge;">100%</text></g></g></g></g></svg><svg xmlns="http://www.w3.org/2000/svg" id="chart-layout-hidden" style="opacity: 0; pointer-events: none;" x="0" y="1002"><g class="fl-chart"><rect class="fl-chart-debug-rectangle" x="0" y="0" style="stroke-width: 1px; fill: none; display: none; stroke: red;" width="300" height="150"/><clipPath class="fl-data-clip-path" id="fl-chart-layout-1-clip-path"><rect x="0" y="0" width="300" height="150"/></clipPath><clipPath class="fl-grid-clip-path" id="fl-chart-layout-1-grid-clip-path"><rect x="34" y="5.65" width="257.1812662478458" height="105.35862197135154"/></clipPath><g class="fl-chart-background"><rect class="fl-chart-fill" x="36" y="7.65" width="253.18126624784583" height="101.35862197135155" fill="none"/><image class="fl-chart-image" x="36" y="7.65" width="253.18126624784583" height="101.35862197135155" preserveAspectRatio="none"/><rect class="fl-chart-interaction" style="opacity: 0;" x="36" y="7.65" width="253.18126624784583" height="101.35862197135155"/></g><g class="fl-data-background" clip-path="url(#fl-chart-layout-1-clip-path)"/><g class="fl-gridlines" style="pointer-events: none;" clip-path="url(#fl-chart-layout-1-grid-clip-path)"><g class="fl-gridlines-vertical"/><g class="fl-gridlines-horizontal"/></g><g class="fl-axes" aria-hidden="true"><g class="fl-x-axes"><g class="fl-axis fl-x-axis fl-bottom-axis"><g class="fl-axis-line"><line x1="36" y1="109.00862197135154" y2="109.00862197135154" style="shape-rendering: crispedges; stroke-linecap: square; stroke-width: 2; opacity: 1; stroke: rgb(238, 238, 238);" x2="289.1812662478458"/></g><g class="fl-axis-ticks"><g transform="translate(36,109.00862197135154)" style="opacity: 1;"><line y2="8" style="stroke: rgb(238, 238, 238); stroke-width: 2;"/><text text-anchor="end" transform="translate(0,12) rotate(-45,0,0) translate(0,10.56)" style="user-select: none; cursor: default; fill: rgb(74, 74, 74); font-size: 16px; font-weight: normal;"><tspan x="0" dy="0">0</tspan></text></g><g transform="translate(289.1812662478458,109.00862197135154)" style="opacity: 1;"><line y2="8" style="stroke: rgb(238, 238, 238); stroke-width: 2;"/><text text-anchor="end" transform="translate(0,12) rotate(-45,0,0) translate(0,10.56)" style="user-select: none; cursor: default; fill: rgb(74, 74, 74); font-size: 16px; font-weight: normal;"><tspan x="0" dy="0">100</tspan></text></g><g transform="translate(263.8631396230613,109.00862197135154)" style="opacity: 1;"><line y2="8" style="stroke: rgb(238, 238, 238); stroke-width: 2;"/><text text-anchor="end" transform="translate(0,12) rotate(-45,0,0) translate(0,10.56)" style="user-select: none; cursor: default; fill: rgb(74, 74, 74); font-size: 16px; font-weight: normal;"><tspan x="0" dy="0">90</tspan></text></g><g transform="translate(238.54501299827666,109.00862197135154)" style="opacity: 1;"><line y2="8" style="stroke: rgb(238, 238, 238); stroke-width: 2;"/><text text-anchor="end" transform="translate(0,12) rotate(-45,0,0) translate(0,10.56)" style="user-select: none; cursor: default; fill: rgb(74, 74, 74); font-size: 16px; font-weight: normal;"><tspan x="0" dy="0">80</tspan></text></g><g transform="translate(213.22688637349208,109.00862197135154)" style="opacity: 1;"><line y2="8" style="stroke: rgb(238, 238, 238); stroke-width: 2;"/><text text-anchor="end" transform="translate(0,12) rotate(-45,0,0) translate(0,10.56)" style="user-select: none; cursor: default; fill: rgb(74, 74, 74); font-size: 16px; font-weight: normal;"><tspan x="0" dy="0">70</tspan></text></g><g transform="translate(187.9087597487075,109.00862197135154)" style="opacity: 1;"><line y2="8" style="stroke: rgb(238, 238, 238); stroke-width: 2;"/><text text-anchor="end" transform="translate(0,12) rotate(-45,0,0) translate(0,10.56)" style="user-select: none; cursor: default; fill: rgb(74, 74, 74); font-size: 16px; font-weight: normal;"><tspan x="0" dy="0">60</tspan></text></g><g transform="translate(162.5906331239229,109.00862197135154)" style="opacity: 1;"><line y2="8" style="stroke: rgb(238, 238, 238); stroke-width: 2;"/><text text-anchor="end" transform="translate(0,12) rotate(-45,0,0) translate(0,10.56)" style="user-select: none; cursor: default; fill: rgb(74, 74, 74); font-size: 16px; font-weight: normal;"><tspan x="0" dy="0">50</tspan></text></g><g transform="translate(137.27250649913833,109.00862197135154)" style="opacity: 1;"><line y2="8" style="stroke: rgb(238, 238, 238); stroke-width: 2;"/><text text-anchor="end" transform="translate(0,12) rotate(-45,0,0) translate(0,10.56)" style="user-select: none; cursor: default; fill: rgb(74, 74, 74); font-size: 16px; font-weight: normal;"><tspan x="0" dy="0">40</tspan></text></g><g transform="translate(111.95437987435375,109.00862197135154)" style="opacity: 1;"><line y2="8" style="stroke: rgb(238, 238, 238); stroke-width: 2;"/><text text-anchor="end" transform="translate(0,12) rotate(-45,0,0) translate(0,10.56)" style="user-select: none; cursor: default; fill: rgb(74, 74, 74); font-size: 16px; font-weight: normal;"><tspan x="0" dy="0">30</tspan></text></g><g transform="translate(86.63625324956917,109.00862197135154)" style="opacity: 1;"><line y2="8" style="stroke: rgb(238, 238, 238); stroke-width: 2;"/><text text-anchor="end" transform="translate(0,12) rotate(-45,0,0) translate(0,10.56)" style="user-select: none; cursor: default; fill: rgb(74, 74, 74); font-size: 16px; font-weight: normal;"><tspan x="0" dy="0">20</tspan></text></g><g transform="translate(61.31812662478458,109.00862197135154)" style="opacity: 1;"><line y2="8" style="stroke: rgb(238, 238, 238); stroke-width: 2;"/><text text-anchor="end" transform="translate(0,12) rotate(-45,0,0) translate(0,10.56)" style="user-select: none; cursor: default; fill: rgb(74, 74, 74); font-size: 16px; font-weight: normal;"><tspan x="0" dy="0">10</tspan></text></g></g><g class="fl-axis-title"/></g><g class="fl-axis fl-x-axis fl-top-axis"><g class="fl-axis-line"/><g class="fl-axis-ticks"/><g class="fl-axis-title"/></g></g><g class="fl-y-axes"><g class="fl-axis fl-y-axis fl-left-axis"><g class="fl-axis-line"><line x1="36" x2="36" y1="109.00862197135154" y2="7.65" style="shape-rendering: crispedges; stroke-linecap: square; stroke-width: 2; opacity: 1; stroke: rgb(238, 238, 238);"/></g><g class="fl-axis-ticks"><g transform="translate(36,109.00862197135156)" style="opacity: 1;"><line x2="-8" style="stroke: rgb(238, 238, 238); stroke-width: 2;"/><text text-anchor="end" transform="translate(-12,5.28)" style="user-select: none; cursor: default; fill: rgb(74, 74, 74); font-size: 16px; font-weight: normal;"><tspan x="0" dy="0">0</tspan></text></g><g transform="translate(36,7.65)" style="opacity: 1;"><line x2="-8" style="stroke: rgb(238, 238, 238); stroke-width: 2;"/><text text-anchor="end" transform="translate(-12,5.28)" style="user-select: none; cursor: default; fill: rgb(74, 74, 74); font-size: 16px; font-weight: normal;"><tspan x="0" dy="0">100</tspan></text></g><g transform="translate(36,27.921724394270306)" style="opacity: 1;"><line x2="-8" style="stroke: rgb(238, 238, 238); stroke-width: 2;"/><text text-anchor="end" transform="translate(-12,5.28)" style="user-select: none; cursor: default; fill: rgb(74, 74, 74); font-size: 16px; font-weight: normal;"><tspan x="0" dy="0">80</tspan></text></g><g transform="translate(36,48.19344878854062)" style="opacity: 1;"><line x2="-8" style="stroke: rgb(238, 238, 238); stroke-width: 2;"/><text text-anchor="end" transform="translate(-12,5.28)" style="user-select: none; cursor: default; fill: rgb(74, 74, 74); font-size: 16px; font-weight: normal;"><tspan x="0" dy="0">60</tspan></text></g><g transform="translate(36,68.46517318281093)" style="opacity: 1;"><line x2="-8" style="stroke: rgb(238, 238, 238); stroke-width: 2;"/><text text-anchor="end" transform="translate(-12,5.28)" style="user-select: none; cursor: default; fill: rgb(74, 74, 74); font-size: 16px; font-weight: normal;"><tspan x="0" dy="0">40</tspan></text></g><g transform="translate(36,88.73689757708125)" style="opacity: 1;"><line x2="-8" style="stroke: rgb(238, 238, 238); stroke-width: 2;"/><text text-anchor="end" transform="translate(-12,5.28)" style="user-select: none; cursor: default; fill: rgb(74, 74, 74); font-size: 16px; font-weight: normal;"><tspan x="0" dy="0">20</tspan></text></g></g><g class="fl-axis-title"/></g><g class="fl-axis fl-y-axis fl-right-axis"><g class="fl-axis-line"/><g class="fl-axis-ticks"/><g class="fl-axis-title"/></g></g></g><g class="fl-data-foreground" clip-path="url(#fl-chart-layout-1-clip-path)"/></g></svg></svg>