<svg xmlns='http://www.w3.org/2000/svg' version='1.1' width='5720px' height='868px'><svg xmlns="http://www.w3.org/2000/svg" style="position: fixed; left: 1000vw;" x="5420" y="0"><text/></svg><svg xmlns="http://www.w3.org/2000/svg" width="524" height="536.203125" x="9" y="129.796875"><g class="fl-chart"><rect class="fl-chart-debug-rectangle" x="0" y="0" style="stroke-width: 1px; fill: none; display: none; stroke: red;" width="524" height="536.203125"/><clipPath class="fl-data-clip-path" id="fl-chart-layout-0-clip-path"><rect x="0" y="0" width="524" height="536.203125"/></clipPath><clipPath class="fl-grid-clip-path" id="fl-chart-layout-0-grid-clip-path"><rect x="2" y="2" width="520" height="511.203125"/></clipPath><g class="fl-chart-background"><rect class="fl-chart-fill" x="3" y="3" width="518" height="509.203125" fill="none"/><image class="fl-chart-image" x="3" y="3" width="518" height="509.203125" preserveAspectRatio="none"/><rect class="fl-chart-interaction" style="opacity: 0;" x="3" y="3" width="518" height="509.203125"/></g><g class="fl-data-background" clip-path="url(#fl-chart-layout-0-clip-path)"/><g class="fl-gridlines" style="pointer-events: none;" clip-path="url(#fl-chart-layout-0-grid-clip-path)"><g class="fl-gridlines-vertical"/><g class="fl-gridlines-horizontal"/></g><g class="fl-axes" aria-hidden="true"><g class="fl-x-axes"><g class="fl-axis fl-x-axis fl-bottom-axis"><g class="fl-axis-line"/><g class="fl-axis-ticks"><g transform="translate(262, 512.203125)" style="opacity: 1;"><line y2="0" style="stroke: rgb(238, 238, 238); stroke-width: 1;"/><text text-anchor="end" transform="translate(0,16.92)" style="user-select: none; cursor: default; font-size: 12px; font-weight: normal;"><tspan x="0" dy="0"/></text></g></g><g class="fl-axis-title"/></g><g class="fl-axis fl-x-axis fl-top-axis"><g class="fl-axis-line"/><g class="fl-axis-ticks"/><g class="fl-axis-title"/></g></g><g class="fl-y-axes"><g class="fl-axis fl-y-axis fl-left-axis"><g class="fl-axis-line"/><g class="fl-axis-ticks"/><g class="fl-axis-title"/></g><g class="fl-axis fl-y-axis fl-right-axis"><g class="fl-axis-line"/><g class="fl-axis-ticks"/><g class="fl-axis-title"/></g></g></g><g class="fl-data-foreground" clip-path="url(#fl-chart-layout-0-clip-path)"><g class="bar-groups"><g class="bar-group"><g class="icons"><g class="icon-layer" style="opacity: 1;"><defs><path id="fl-icon--844849807" d="M224 256c70.7 0 128-57.3 128-128S294.7 0 224 0 96 57.3 96 128s57.3 128 128 128zm89.6 32h-16.7c-22.2 10.2-46.9 16-72.9 16s-50.6-5.8-72.9-16h-16.7C60.2 288 0 348.2 0 422.4V464c0 26.5 21.5 48 48 48h352c26.5 0 48-21.5 48-48v-41.6c0-74.2-60.2-134.4-134.4-134.4z" transform="translate(0,0)scale(0.08923359374999999)" style="fill: rgb(0, 0, 0); stroke: none; stroke-width: 0;"/></defs><g class="icons" clip-path="url(#fl-clip-path--844849807)"><use transform="translate(13.180000000000007,464)" xmlns:ns1="http://www.w3.org/1999/xlink" ns1:href="#fl-icon--844849807"/><use transform="translate(64.18,464)" xmlns:ns2="http://www.w3.org/1999/xlink" ns2:href="#fl-icon--844849807"/><use transform="translate(115.18,464)" xmlns:ns3="http://www.w3.org/1999/xlink" ns3:href="#fl-icon--844849807"/><use transform="translate(166.18,464)" xmlns:ns4="http://www.w3.org/1999/xlink" ns4:href="#fl-icon--844849807"/><use transform="translate(216.18,464)" xmlns:ns5="http://www.w3.org/1999/xlink" ns5:href="#fl-icon--844849807"/><use transform="translate(267.18,464)" xmlns:ns6="http://www.w3.org/1999/xlink" ns6:href="#fl-icon--844849807"/><use transform="translate(318.18,464)" xmlns:ns7="http://www.w3.org/1999/xlink" ns7:href="#fl-icon--844849807"/><use transform="translate(369.18,464)" xmlns:ns8="http://www.w3.org/1999/xlink" ns8:href="#fl-icon--844849807"/><use transform="translate(420.18,464)" xmlns:ns9="http://www.w3.org/1999/xlink" ns9:href="#fl-icon--844849807"/><use transform="translate(470.18,464)" xmlns:ns10="http://www.w3.org/1999/xlink" ns10:href="#fl-icon--844849807"/><use transform="translate(13.180000000000007,413)" xmlns:ns11="http://www.w3.org/1999/xlink" ns11:href="#fl-icon--844849807"/><use transform="translate(64.18,413)" xmlns:ns12="http://www.w3.org/1999/xlink" ns12:href="#fl-icon--844849807"/><use transform="translate(115.18,413)" xmlns:ns13="http://www.w3.org/1999/xlink" ns13:href="#fl-icon--844849807"/><use transform="translate(166.18,413)" xmlns:ns14="http://www.w3.org/1999/xlink" ns14:href="#fl-icon--844849807"/><use transform="translate(216.18,413)" xmlns:ns15="http://www.w3.org/1999/xlink" ns15:href="#fl-icon--844849807"/><use transform="translate(267.18,413)" xmlns:ns16="http://www.w3.org/1999/xlink" ns16:href="#fl-icon--844849807"/><use transform="translate(318.18,413)" xmlns:ns17="http://www.w3.org/1999/xlink" ns17:href="#fl-icon--844849807"/><use transform="translate(369.18,413)" xmlns:ns18="http://www.w3.org/1999/xlink" ns18:href="#fl-icon--844849807"/><use transform="translate(420.18,413)" xmlns:ns19="http://www.w3.org/1999/xlink" ns19:href="#fl-icon--844849807"/><use transform="translate(470.18,413)" xmlns:ns20="http://www.w3.org/1999/xlink" ns20:href="#fl-icon--844849807"/><use transform="translate(13.180000000000007,362)" xmlns:ns21="http://www.w3.org/1999/xlink" ns21:href="#fl-icon--844849807"/><use transform="translate(64.18,362)" xmlns:ns22="http://www.w3.org/1999/xlink" ns22:href="#fl-icon--844849807"/><use transform="translate(115.18,362)" xmlns:ns23="http://www.w3.org/1999/xlink" ns23:href="#fl-icon--844849807"/><use transform="translate(166.18,362)" xmlns:ns24="http://www.w3.org/1999/xlink" ns24:href="#fl-icon--844849807"/><use transform="translate(216.18,362)" xmlns:ns25="http://www.w3.org/1999/xlink" ns25:href="#fl-icon--844849807"/><use transform="translate(267.18,362)" xmlns:ns26="http://www.w3.org/1999/xlink" ns26:href="#fl-icon--844849807"/><use transform="translate(318.18,362)" xmlns:ns27="http://www.w3.org/1999/xlink" ns27:href="#fl-icon--844849807"/><use transform="translate(369.18,362)" xmlns:ns28="http://www.w3.org/1999/xlink" ns28:href="#fl-icon--844849807"/><use transform="translate(420.18,362)" xmlns:ns29="http://www.w3.org/1999/xlink" ns29:href="#fl-icon--844849807"/><use transform="translate(470.18,362)" xmlns:ns30="http://www.w3.org/1999/xlink" ns30:href="#fl-icon--844849807"/><use transform="translate(13.180000000000007,312)" xmlns:ns31="http://www.w3.org/1999/xlink" ns31:href="#fl-icon--844849807"/><use transform="translate(64.18,312)" xmlns:ns32="http://www.w3.org/1999/xlink" ns32:href="#fl-icon--844849807"/><use transform="translate(115.18,312)" xmlns:ns33="http://www.w3.org/1999/xlink" ns33:href="#fl-icon--844849807"/><use transform="translate(166.18,312)" xmlns:ns34="http://www.w3.org/1999/xlink" ns34:href="#fl-icon--844849807"/><use transform="translate(216.18,312)" xmlns:ns35="http://www.w3.org/1999/xlink" ns35:href="#fl-icon--844849807"/><use transform="translate(267.18,312)" xmlns:ns36="http://www.w3.org/1999/xlink" ns36:href="#fl-icon--844849807"/><use transform="translate(318.18,312)" xmlns:ns37="http://www.w3.org/1999/xlink" ns37:href="#fl-icon--844849807"/><use transform="translate(369.18,312)" xmlns:ns38="http://www.w3.org/1999/xlink" ns38:href="#fl-icon--844849807"/><use transform="translate(420.18,312)" xmlns:ns39="http://www.w3.org/1999/xlink" ns39:href="#fl-icon--844849807"/><use transform="translate(470.18,312)" xmlns:ns40="http://www.w3.org/1999/xlink" ns40:href="#fl-icon--844849807"/><use transform="translate(13.180000000000007,261)" xmlns:ns41="http://www.w3.org/1999/xlink" ns41:href="#fl-icon--844849807"/><use transform="translate(64.18,261)" xmlns:ns42="http://www.w3.org/1999/xlink" ns42:href="#fl-icon--844849807"/><use transform="translate(115.18,261)" xmlns:ns43="http://www.w3.org/1999/xlink" ns43:href="#fl-icon--844849807"/><use transform="translate(166.18,261)" xmlns:ns44="http://www.w3.org/1999/xlink" ns44:href="#fl-icon--844849807"/><use transform="translate(216.18,261)" xmlns:ns45="http://www.w3.org/1999/xlink" ns45:href="#fl-icon--844849807"/><use transform="translate(267.18,261)" xmlns:ns46="http://www.w3.org/1999/xlink" ns46:href="#fl-icon--844849807"/><use transform="translate(318.18,261)" xmlns:ns47="http://www.w3.org/1999/xlink" ns47:href="#fl-icon--844849807"/><use transform="translate(369.18,261)" xmlns:ns48="http://www.w3.org/1999/xlink" ns48:href="#fl-icon--844849807"/><use transform="translate(420.18,261)" xmlns:ns49="http://www.w3.org/1999/xlink" ns49:href="#fl-icon--844849807"/></g></g><g class="icon-layer" style="opacity: 1;"><defs><path id="fl-icon-976201868" d="M224 256c70.7 0 128-57.3 128-128S294.7 0 224 0 96 57.3 96 128s57.3 128 128 128zm89.6 32h-16.7c-22.2 10.2-46.9 16-72.9 16s-50.6-5.8-72.9-16h-16.7C60.2 288 0 348.2 0 422.4V464c0 26.5 21.5 48 48 48h352c26.5 0 48-21.5 48-48v-41.6c0-74.2-60.2-134.4-134.4-134.4z" transform="translate(0,0)scale(0.08923359374999999)" style="fill: rgb(196, 196, 196); stroke: none; stroke-width: 0;"/></defs><g class="icons" clip-path="url(#fl-clip-path-976201868)"><use transform="translate(420.18,261)" xmlns:ns50="http://www.w3.org/1999/xlink" ns50:href="#fl-icon-976201868"/><use transform="translate(470.18,261)" xmlns:ns51="http://www.w3.org/1999/xlink" ns51:href="#fl-icon-976201868"/><use transform="translate(13.180000000000007,210)" xmlns:ns52="http://www.w3.org/1999/xlink" ns52:href="#fl-icon-976201868"/><use transform="translate(64.18,210)" xmlns:ns53="http://www.w3.org/1999/xlink" ns53:href="#fl-icon-976201868"/><use transform="translate(115.18,210)" xmlns:ns54="http://www.w3.org/1999/xlink" ns54:href="#fl-icon-976201868"/><use transform="translate(166.18,210)" xmlns:ns55="http://www.w3.org/1999/xlink" ns55:href="#fl-icon-976201868"/><use transform="translate(216.18,210)" xmlns:ns56="http://www.w3.org/1999/xlink" ns56:href="#fl-icon-976201868"/><use transform="translate(267.18,210)" xmlns:ns57="http://www.w3.org/1999/xlink" ns57:href="#fl-icon-976201868"/><use transform="translate(318.18,210)" xmlns:ns58="http://www.w3.org/1999/xlink" ns58:href="#fl-icon-976201868"/><use transform="translate(369.18,210)" xmlns:ns59="http://www.w3.org/1999/xlink" ns59:href="#fl-icon-976201868"/><use transform="translate(420.18,210)" xmlns:ns60="http://www.w3.org/1999/xlink" ns60:href="#fl-icon-976201868"/><use transform="translate(470.18,210)" xmlns:ns61="http://www.w3.org/1999/xlink" ns61:href="#fl-icon-976201868"/><use transform="translate(13.180000000000007,159)" xmlns:ns62="http://www.w3.org/1999/xlink" ns62:href="#fl-icon-976201868"/><use transform="translate(64.18,159)" xmlns:ns63="http://www.w3.org/1999/xlink" ns63:href="#fl-icon-976201868"/><use transform="translate(115.18,159)" xmlns:ns64="http://www.w3.org/1999/xlink" ns64:href="#fl-icon-976201868"/><use transform="translate(166.18,159)" xmlns:ns65="http://www.w3.org/1999/xlink" ns65:href="#fl-icon-976201868"/><use transform="translate(216.18,159)" xmlns:ns66="http://www.w3.org/1999/xlink" ns66:href="#fl-icon-976201868"/><use transform="translate(267.18,159)" xmlns:ns67="http://www.w3.org/1999/xlink" ns67:href="#fl-icon-976201868"/><use transform="translate(318.18,159)" xmlns:ns68="http://www.w3.org/1999/xlink" ns68:href="#fl-icon-976201868"/><use transform="translate(369.18,159)" xmlns:ns69="http://www.w3.org/1999/xlink" ns69:href="#fl-icon-976201868"/><use transform="translate(420.18,159)" xmlns:ns70="http://www.w3.org/1999/xlink" ns70:href="#fl-icon-976201868"/><use transform="translate(470.18,159)" xmlns:ns71="http://www.w3.org/1999/xlink" ns71:href="#fl-icon-976201868"/><use transform="translate(13.180000000000007,109)" xmlns:ns72="http://www.w3.org/1999/xlink" ns72:href="#fl-icon-976201868"/><use transform="translate(64.18,109)" xmlns:ns73="http://www.w3.org/1999/xlink" ns73:href="#fl-icon-976201868"/><use transform="translate(115.18,109)" xmlns:ns74="http://www.w3.org/1999/xlink" ns74:href="#fl-icon-976201868"/><use transform="translate(166.18,109)" xmlns:ns75="http://www.w3.org/1999/xlink" ns75:href="#fl-icon-976201868"/><use transform="translate(216.18,109)" xmlns:ns76="http://www.w3.org/1999/xlink" ns76:href="#fl-icon-976201868"/><use transform="translate(267.18,109)" xmlns:ns77="http://www.w3.org/1999/xlink" ns77:href="#fl-icon-976201868"/><use transform="translate(318.18,109)" xmlns:ns78="http://www.w3.org/1999/xlink" ns78:href="#fl-icon-976201868"/><use transform="translate(369.18,109)" xmlns:ns79="http://www.w3.org/1999/xlink" ns79:href="#fl-icon-976201868"/><use transform="translate(420.18,109)" xmlns:ns80="http://www.w3.org/1999/xlink" ns80:href="#fl-icon-976201868"/><use transform="translate(470.18,109)" xmlns:ns81="http://www.w3.org/1999/xlink" ns81:href="#fl-icon-976201868"/><use transform="translate(13.180000000000007,58)" xmlns:ns82="http://www.w3.org/1999/xlink" ns82:href="#fl-icon-976201868"/><use transform="translate(64.18,58)" xmlns:ns83="http://www.w3.org/1999/xlink" ns83:href="#fl-icon-976201868"/><use transform="translate(115.18,58)" xmlns:ns84="http://www.w3.org/1999/xlink" ns84:href="#fl-icon-976201868"/><use transform="translate(166.18,58)" xmlns:ns85="http://www.w3.org/1999/xlink" ns85:href="#fl-icon-976201868"/><use transform="translate(216.18,58)" xmlns:ns86="http://www.w3.org/1999/xlink" ns86:href="#fl-icon-976201868"/><use transform="translate(267.18,58)" xmlns:ns87="http://www.w3.org/1999/xlink" ns87:href="#fl-icon-976201868"/><use transform="translate(318.18,58)" xmlns:ns88="http://www.w3.org/1999/xlink" ns88:href="#fl-icon-976201868"/><use transform="translate(369.18,58)" xmlns:ns89="http://www.w3.org/1999/xlink" ns89:href="#fl-icon-976201868"/><use transform="translate(420.18,58)" xmlns:ns90="http://www.w3.org/1999/xlink" ns90:href="#fl-icon-976201868"/><use transform="translate(470.18,58)" xmlns:ns91="http://www.w3.org/1999/xlink" ns91:href="#fl-icon-976201868"/><use transform="translate(13.180000000000007,7)" xmlns:ns92="http://www.w3.org/1999/xlink" ns92:href="#fl-icon-976201868"/><use transform="translate(64.18,7)" xmlns:ns93="http://www.w3.org/1999/xlink" ns93:href="#fl-icon-976201868"/><use transform="translate(115.18,7)" xmlns:ns94="http://www.w3.org/1999/xlink" ns94:href="#fl-icon-976201868"/><use transform="translate(166.18,7)" xmlns:ns95="http://www.w3.org/1999/xlink" ns95:href="#fl-icon-976201868"/><use transform="translate(216.18,7)" xmlns:ns96="http://www.w3.org/1999/xlink" ns96:href="#fl-icon-976201868"/><use transform="translate(267.18,7)" xmlns:ns97="http://www.w3.org/1999/xlink" ns97:href="#fl-icon-976201868"/><use transform="translate(318.18,7)" xmlns:ns98="http://www.w3.org/1999/xlink" ns98:href="#fl-icon-976201868"/><use transform="translate(369.18,7)" xmlns:ns99="http://www.w3.org/1999/xlink" ns99:href="#fl-icon-976201868"/><use transform="translate(420.18,7)" xmlns:ns100="http://www.w3.org/1999/xlink" ns100:href="#fl-icon-976201868"/><use transform="translate(470.18,7)" xmlns:ns101="http://www.w3.org/1999/xlink" ns101:href="#fl-icon-976201868"/></g></g></g><g class="clip-paths"><clipPath id="fl-clip-path--844849807"><path d="M8.180000000000007,512.203125 L58.944,512.203125 L58.944,461.439125 L8.180000000000007,461.439125 z M58.944,512.203125 L515.8199999999999,512.203125 L515.8199999999999,461.439125 L58.944,461.439125 z M8.180000000000007,461.439125 L515.8199999999999,461.439125 L515.8199999999999,309.147125 L8.180000000000007,309.147125 z M8.180000000000007,309.147125 L414.292,309.147125 L414.292,258.383125 L8.180000000000007,258.383125 z M414.292,309.147125 L465.056,309.147125 L465.056,282.7498449999998 L414.292,282.7498449999998 z " style="fill: rgb(255, 255, 255);"/></clipPath><clipPath id="fl-clip-path-976201868"><path d="M414.292,282.7498449999998 L465.056,282.7498449999998 L465.056,258.383125 L414.292,258.383125 z M465.056,309.147125 L515.8199999999999,309.147125 L515.8199999999999,258.383125 L465.056,258.383125 z M8.180000000000007,258.383125 L515.8199999999999,258.383125 L515.8199999999999,4.563125000000014 L8.180000000000007,4.563125000000014 z M8.180000000000007,4.563125000000014 L58.944,4.563125000000014 L58.944,4.563125000000014 L8.180000000000007,4.563125000000014 z " style="fill: rgb(255, 255, 255);"/></clipPath></g><g class="popup-positions"><path d="M8.180000000000007,512.203125 L58.944,512.203125 L58.944,461.439125 L8.180000000000007,461.439125 z M58.944,512.203125 L515.8199999999999,512.203125 L515.8199999999999,461.439125 L58.944,461.439125 z M8.180000000000007,461.439125 L515.8199999999999,461.439125 L515.8199999999999,309.147125 L8.180000000000007,309.147125 z M8.180000000000007,309.147125 L414.292,309.147125 L414.292,258.383125 L8.180000000000007,258.383125 z M414.292,309.147125 L465.056,309.147125 L465.056,282.7498449999998 L414.292,282.7498449999998 z " style="fill: transparent;"/><path d="M414.292,282.7498449999998 L465.056,282.7498449999998 L465.056,258.383125 L414.292,258.383125 z M465.056,309.147125 L515.8199999999999,309.147125 L515.8199999999999,258.383125 L465.056,258.383125 z M8.180000000000007,258.383125 L515.8199999999999,258.383125 L515.8199999999999,4.563125000000014 L8.180000000000007,4.563125000000014 z M8.180000000000007,4.563125000000014 L58.944,4.563125000000014 L58.944,4.563125000000014 L8.180000000000007,4.563125000000014 z " style="fill: transparent;"/></g><g class="events"><path d="M8.180000000000007,512.203125 L58.944,512.203125 L58.944,461.439125 L8.180000000000007,461.439125 z M58.944,512.203125 L515.8199999999999,512.203125 L515.8199999999999,461.439125 L58.944,461.439125 z M8.180000000000007,461.439125 L515.8199999999999,461.439125 L515.8199999999999,309.147125 L8.180000000000007,309.147125 z M8.180000000000007,309.147125 L414.292,309.147125 L414.292,258.383125 L8.180000000000007,258.383125 z M414.292,309.147125 L465.056,309.147125 L465.056,282.7498449999998 L414.292,282.7498449999998 z " role="img" aria-roledescription="data point" aria-label="Homens, Proporção: 48.52" tabindex="0" style="fill: transparent;"/><path d="M414.292,282.7498449999998 L465.056,282.7498449999998 L465.056,258.383125 L414.292,258.383125 z M465.056,309.147125 L515.8199999999999,309.147125 L515.8199999999999,258.383125 L465.056,258.383125 z M8.180000000000007,258.383125 L515.8199999999999,258.383125 L515.8199999999999,4.563125000000014 L8.180000000000007,4.563125000000014 z M8.180000000000007,4.563125000000014 L58.944,4.563125000000014 L58.944,4.563125000000014 L8.180000000000007,4.563125000000014 z " role="img" aria-roledescription="data point" aria-label="Mulheres, Proporção: 51.48" tabindex="0" style="fill: transparent;"/></g><text class="bar-label" x="262" y="4.563125000000014" style="display: none; font-size: 9.6px; fill: rgb(74, 74, 74); font-weight: bold; text-anchor: middle; dominant-baseline: text-after-edge;">100%</text></g></g></g></g></svg><svg xmlns="http://www.w3.org/2000/svg" id="chart-layout-hidden" style="opacity: 0; pointer-events: none;" x="0" y="718"><g class="fl-chart"><rect class="fl-chart-debug-rectangle" x="0" y="0" style="stroke-width: 1px; fill: none; display: none; stroke: red;" width="300" height="150"/><clipPath class="fl-data-clip-path" id="fl-chart-layout-1-clip-path"><rect x="0" y="0" width="300" height="150"/></clipPath><clipPath class="fl-grid-clip-path" id="fl-chart-layout-1-grid-clip-path"><rect x="34" y="5.65" width="257.1812662478458" height="105.35862197135154"/></clipPath><g class="fl-chart-background"><rect class="fl-chart-fill" x="36" y="7.65" width="253.18126624784583" height="101.35862197135155" fill="none"/><image class="fl-chart-image" x="36" y="7.65" width="253.18126624784583" height="101.35862197135155" preserveAspectRatio="none"/><rect class="fl-chart-interaction" style="opacity: 0;" x="36" y="7.65" width="253.18126624784583" height="101.35862197135155"/></g><g class="fl-data-background" clip-path="url(#fl-chart-layout-1-clip-path)"/><g class="fl-gridlines" style="pointer-events: none;" clip-path="url(#fl-chart-layout-1-grid-clip-path)"><g class="fl-gridlines-vertical"/><g class="fl-gridlines-horizontal"/></g><g class="fl-axes" aria-hidden="true"><g class="fl-x-axes"><g class="fl-axis fl-x-axis fl-bottom-axis"><g class="fl-axis-line"><line x1="36" y1="109.00862197135154" y2="109.00862197135154" style="shape-rendering: crispedges; stroke-linecap: square; stroke-width: 2; opacity: 1; stroke: rgb(238, 238, 238);" x2="289.1812662478458"/></g><g class="fl-axis-ticks"><g transform="translate(36,109.00862197135154)" style="opacity: 1;"><line y2="8" style="stroke: rgb(238, 238, 238); stroke-width: 2;"/><text text-anchor="end" transform="translate(0,12) rotate(-45,0,0) translate(0,10.56)" style="user-select: none; cursor: default; fill: rgb(74, 74, 74); font-size: 16px; font-weight: normal;"><tspan x="0" dy="0">0</tspan></text></g><g transform="translate(289.1812662478458,109.00862197135154)" style="opacity: 1;"><line y2="8" style="stroke: rgb(238, 238, 238); stroke-width: 2;"/><text text-anchor="end" transform="translate(0,12) rotate(-45,0,0) translate(0,10.56)" style="user-select: none; cursor: default; fill: rgb(74, 74, 74); font-size: 16px; font-weight: normal;"><tspan x="0" dy="0">100</tspan></text></g><g transform="translate(263.8631396230613,109.00862197135154)" style="opacity: 1;"><line y2="8" style="stroke: rgb(238, 238, 238); stroke-width: 2;"/><text text-anchor="end" transform="translate(0,12) rotate(-45,0,0) translate(0,10.56)" style="user-select: none; cursor: default; fill: rgb(74, 74, 74); font-size: 16px; font-weight: normal;"><tspan x="0" dy="0">90</tspan></text></g><g transform="translate(238.54501299827666,109.00862197135154)" style="opacity: 1;"><line y2="8" style="stroke: rgb(238, 238, 238); stroke-width: 2;"/><text text-anchor="end" transform="translate(0,12) rotate(-45,0,0) translate(0,10.56)" style="user-select: none; cursor: default; fill: rgb(74, 74, 74); font-size: 16px; font-weight: normal;"><tspan x="0" dy="0">80</tspan></text></g><g transform="translate(213.22688637349208,109.00862197135154)" style="opacity: 1;"><line y2="8" style="stroke: rgb(238, 238, 238); stroke-width: 2;"/><text text-anchor="end" transform="translate(0,12) rotate(-45,0,0) translate(0,10.56)" style="user-select: none; cursor: default; fill: rgb(74, 74, 74); font-size: 16px; font-weight: normal;"><tspan x="0" dy="0">70</tspan></text></g><g transform="translate(187.9087597487075,109.00862197135154)" style="opacity: 1;"><line y2="8" style="stroke: rgb(238, 238, 238); stroke-width: 2;"/><text text-anchor="end" transform="translate(0,12) rotate(-45,0,0) translate(0,10.56)" style="user-select: none; cursor: default; fill: rgb(74, 74, 74); font-size: 16px; font-weight: normal;"><tspan x="0" dy="0">60</tspan></text></g><g transform="translate(162.5906331239229,109.00862197135154)" style="opacity: 1;"><line y2="8" style="stroke: rgb(238, 238, 238); stroke-width: 2;"/><text text-anchor="end" transform="translate(0,12) rotate(-45,0,0) translate(0,10.56)" style="user-select: none; cursor: default; fill: rgb(74, 74, 74); font-size: 16px; font-weight: normal;"><tspan x="0" dy="0">50</tspan></text></g><g transform="translate(137.27250649913833,109.00862197135154)" style="opacity: 1;"><line y2="8" style="stroke: rgb(238, 238, 238); stroke-width: 2;"/><text text-anchor="end" transform="translate(0,12) rotate(-45,0,0) translate(0,10.56)" style="user-select: none; cursor: default; fill: rgb(74, 74, 74); font-size: 16px; font-weight: normal;"><tspan x="0" dy="0">40</tspan></text></g><g transform="translate(111.95437987435375,109.00862197135154)" style="opacity: 1;"><line y2="8" style="stroke: rgb(238, 238, 238); stroke-width: 2;"/><text text-anchor="end" transform="translate(0,12) rotate(-45,0,0) translate(0,10.56)" style="user-select: none; cursor: default; fill: rgb(74, 74, 74); font-size: 16px; font-weight: normal;"><tspan x="0" dy="0">30</tspan></text></g><g transform="translate(86.63625324956917,109.00862197135154)" style="opacity: 1;"><line y2="8" style="stroke: rgb(238, 238, 238); stroke-width: 2;"/><text text-anchor="end" transform="translate(0,12) rotate(-45,0,0) translate(0,10.56)" style="user-select: none; cursor: default; fill: rgb(74, 74, 74); font-size: 16px; font-weight: normal;"><tspan x="0" dy="0">20</tspan></text></g><g transform="translate(61.31812662478458,109.00862197135154)" style="opacity: 1;"><line y2="8" style="stroke: rgb(238, 238, 238); stroke-width: 2;"/><text text-anchor="end" transform="translate(0,12) rotate(-45,0,0) translate(0,10.56)" style="user-select: none; cursor: default; fill: rgb(74, 74, 74); font-size: 16px; font-weight: normal;"><tspan x="0" dy="0">10</tspan></text></g></g><g class="fl-axis-title"/></g><g class="fl-axis fl-x-axis fl-top-axis"><g class="fl-axis-line"/><g class="fl-axis-ticks"/><g class="fl-axis-title"/></g></g><g class="fl-y-axes"><g class="fl-axis fl-y-axis fl-left-axis"><g class="fl-axis-line"><line x1="36" x2="36" y1="109.00862197135154" y2="7.65" style="shape-rendering: crispedges; stroke-linecap: square; stroke-width: 2; opacity: 1; stroke: rgb(238, 238, 238);"/></g><g class="fl-axis-ticks"><g transform="translate(36,109.00862197135156)" style="opacity: 1;"><line x2="-8" style="stroke: rgb(238, 238, 238); stroke-width: 2;"/><text text-anchor="end" transform="translate(-12,5.28)" style="user-select: none; cursor: default; fill: rgb(74, 74, 74); font-size: 16px; font-weight: normal;"><tspan x="0" dy="0">0</tspan></text></g><g transform="translate(36,7.65)" style="opacity: 1;"><line x2="-8" style="stroke: rgb(238, 238, 238); stroke-width: 2;"/><text text-anchor="end" transform="translate(-12,5.28)" style="user-select: none; cursor: default; fill: rgb(74, 74, 74); font-size: 16px; font-weight: normal;"><tspan x="0" dy="0">100</tspan></text></g><g transform="translate(36,27.921724394270306)" style="opacity: 1;"><line x2="-8" style="stroke: rgb(238, 238, 238); stroke-width: 2;"/><text text-anchor="end" transform="translate(-12,5.28)" style="user-select: none; cursor: default; fill: rgb(74, 74, 74); font-size: 16px; font-weight: normal;"><tspan x="0" dy="0">80</tspan></text></g><g transform="translate(36,48.19344878854062)" style="opacity: 1;"><line x2="-8" style="stroke: rgb(238, 238, 238); stroke-width: 2;"/><text text-anchor="end" transform="translate(-12,5.28)" style="user-select: none; cursor: default; fill: rgb(74, 74, 74); font-size: 16px; font-weight: normal;"><tspan x="0" dy="0">60</tspan></text></g><g transform="translate(36,68.46517318281093)" style="opacity: 1;"><line x2="-8" style="stroke: rgb(238, 238, 238); stroke-width: 2;"/><text text-anchor="end" transform="translate(-12,5.28)" style="user-select: none; cursor: default; fill: rgb(74, 74, 74); font-size: 16px; font-weight: normal;"><tspan x="0" dy="0">40</tspan></text></g><g transform="translate(36,88.73689757708125)" style="opacity: 1;"><line x2="-8" style="stroke: rgb(238, 238, 238); stroke-width: 2;"/><text text-anchor="end" transform="translate(-12,5.28)" style="user-select: none; cursor: default; fill: rgb(74, 74, 74); font-size: 16px; font-weight: normal;"><tspan x="0" dy="0">20</tspan></text></g></g><g class="fl-axis-title"/></g><g class="fl-axis fl-y-axis fl-right-axis"><g class="fl-axis-line"/><g class="fl-axis-ticks"/><g class="fl-axis-title"/></g></g></g><g class="fl-data-foreground" clip-path="url(#fl-chart-layout-1-clip-path)"/></g></svg></svg>